<?xml version="1.0" standalone="no"?><!DOCTYPE svg PUBLIC "-//W3C//DTD SVG 1.1//EN" "http://www.w3.org/Graphics/SVG/1.1/DTD/svg11.dtd"><svg t="1691674952750" class="icon" viewBox="0 0 1024 1024" version="1.1" xmlns="http://www.w3.org/2000/svg" p-id="3043" xmlns:xlink="http://www.w3.org/1999/xlink" width="200" height="200"><path d="M512 743.21c-127.49 0-231.21-103.71-231.21-231.21S384.51 280.79 512 280.79 743.21 384.51 743.21 512 639.49 743.21 512 743.21z m0-400.76c-93.49 0-169.55 76.06-169.55 169.55S418.51 681.55 512 681.55 681.55 605.49 681.55 512 605.49 342.45 512 342.45zM512 242.26c-17.02 0-30.83-13.8-30.83-30.83V95.83C481.17 78.8 494.98 65 512 65s30.83 13.8 30.83 30.83v115.6c0 17.03-13.81 30.83-30.83 30.83zM299.46 330.29c-7.89 0-15.78-3.01-21.8-9.03l-81.74-81.74c-12.04-12.04-12.04-31.55 0-43.59s31.55-12.04 43.59 0l81.74 81.74c12.04 12.04 12.04 31.55 0 43.59-6.02 6.02-13.9 9.03-21.79 9.03zM211.43 542.83H95.83C78.8 542.83 65 529.02 65 512s13.8-30.83 30.83-30.83h115.6c17.02 0 30.83 13.8 30.83 30.83s-13.8 30.83-30.83 30.83zM217.72 837.1c-7.89 0-15.78-3.01-21.8-9.03-12.04-12.04-12.04-31.55 0-43.59l81.74-81.74c12.04-12.04 31.55-12.04 43.59 0 12.04 12.04 12.04 31.55 0 43.59l-81.74 81.74c-6.01 6.02-13.9 9.03-21.79 9.03zM512 959c-17.02 0-30.83-13.8-30.83-30.83v-115.6c0-17.02 13.8-30.83 30.83-30.83s30.83 13.8 30.83 30.83v115.6c0 17.03-13.81 30.83-30.83 30.83zM806.28 837.1c-7.89 0-15.78-3.01-21.8-9.03l-81.74-81.74c-12.04-12.04-12.04-31.55 0-43.59 12.04-12.04 31.55-12.04 43.59 0l81.74 81.74c12.04 12.04 12.04 31.55 0 43.59a30.728 30.728 0 0 1-21.79 9.03zM928.17 542.83h-115.6c-17.02 0-30.83-13.8-30.83-30.83s13.8-30.83 30.83-30.83h115.6c17.02 0 30.83 13.8 30.83 30.83s-13.8 30.83-30.83 30.83zM724.54 330.29c-7.89 0-15.78-3.01-21.8-9.03-12.04-12.04-12.04-31.55 0-43.59l81.74-81.74c12.04-12.04 31.55-12.04 43.59 0 12.04 12.04 12.04 31.55 0 43.59l-81.74 81.74c-6.01 6.02-13.9 9.03-21.79 9.03z" p-id="3044" fill="#ffffff"></path></svg>