<?xml version="1.0" standalone="no"?><!DOCTYPE svg PUBLIC "-//W3C//DTD SVG 1.1//EN" "http://www.w3.org/Graphics/SVG/1.1/DTD/svg11.dtd"><svg t="1696851345318" class="icon" viewBox="0 0 1024 1024" version="1.1" xmlns="http://www.w3.org/2000/svg" p-id="15458" xmlns:xlink="http://www.w3.org/1999/xlink" width="200" height="200"><path d="M516 1024q-161.714286 0-288.285714-86T39.428571 710.285714Q6.285714 635.428571 1.142857 538.285714t14.857143-190 63.428571-178.285714T181.714286 31.428571l-6.285715 160.571429q6.285714-8 38.857143-8.857143t40 8.857143q24-46.285714 91.714286-78.857143T480 79.428571q-30.857143 25.714286-68.285714 84.857143T378.285714 257.714286q14.285714 4.571429 35.714286 7.714285t36 4.285715 38.857143 2.285714 28.857143 1.714286q8.571429 2.857143 5.428571 26T505.714286 342.857143q-2.857143 4-9.428572 10.571428T464 373.714286t-57.714286 19.428571l8.571429 108-79.428572-38.285714q-10.285714 24.571429-4.285714 46.571428t20.571429 38 37.428571 23.714286 46.285714 3.714286q29.142857-5.142857 56-19.714286t47.714286-25.714286T581.142857 519.428571q34.857143 2.285714 51.142857 18.857143t11.142857 37.142857q-0.571429 1.142857-1.428571 3.142858t-4.857143 7.142857-10.285714 8.857143-18 6-26.571429 0.571428q-34.285714 54.285714-82.571428 77.428572T380 695.428571q42.285714 34.857143 92.857143 47.142858t96.285714 3.428571 88.285714-29.714286 73.142858-50 46-59.428571q24.571429-52 22.285714-110T777.428571 389.142857 732.571429 317.714286q49.714286 21.714286 78.285714 45.428571t44 64.285714q8.571429-97.142857-32.857143-196T702.285714 69.142857q151.428571 44 235.428572 159.714286T1024 524.571429q1.142857 72.571429-23.142857 145.714285T930.285714 806.285714t-108 112-141.428571 77.428572T516 1024z" p-id="15459" fill="#ff9b50"></path></svg>